<svg width="65" height="65" viewBox="0 0 65 65" fill="none" xmlns="http://www.w3.org/2000/svg">
<ellipse cx="40.5" cy="32" rx="15.5" ry="19" fill="#FBF6D4"/>
<path d="M62.6905 6.83694L49.3192 0.404147C47.7633 -0.347395 45.9129 -0.0305289 44.6962 1.18616L19.0849 24.555L7.92344 16.0911C6.88753 15.2969 5.4271 15.3619 4.46431 16.2393L0.889413 19.4974C-0.294773 20.5658 -0.294773 22.4284 0.879257 23.4968L10.5599 32.3305L0.879257 41.1641C-0.294773 42.2325 -0.294773 44.0951 0.889413 45.1635L4.46431 48.4216C5.43726 49.2991 6.88753 49.3641 7.92344 48.5699L19.0849 40.0957L44.7084 63.4748C45.9149 64.6914 47.7653 65.0083 49.3212 64.2568L62.7047 57.8138C64.1124 57.1374 65 55.7197 65 54.1536V10.4931C65 8.93719 64.1002 7.50926 62.6946 6.83288L62.6905 6.83694ZM48.7565 47.0911L29.3119 32.3325L48.7565 17.5738V47.0911Z" fill="#FC657E"/>
</svg>
