<svg width="65" height="65" viewBox="0 0 65 65" fill="none" xmlns="http://www.w3.org/2000/svg">
<ellipse cx="32.5" cy="34" rx="29.5" ry="31" fill="#FBF6D4"/>
<path d="M32.502 0.00203135C14.5467 0.00203135 0 14.5609 0 32.5041C0 46.872 9.31183 59.0501 22.2172 63.3465C23.8484 63.6532 24.4375 62.6477 24.4375 61.7782C24.4375 61.0063 24.4192 58.9648 24.407 56.2549C15.3613 58.2132 13.4558 51.8854 13.4558 51.8854C11.975 48.1396 9.83796 47.134 9.83796 47.134C6.89652 45.125 10.0716 45.1677 10.0716 45.1677C13.3299 45.3891 15.0444 48.5093 15.0444 48.5093C17.9432 53.4821 22.6499 52.0439 24.5126 51.2069C24.797 49.1126 25.6441 47.6724 26.5663 46.87C19.3509 46.0554 11.7637 43.2622 11.7637 30.8079C11.7637 27.2509 13.0232 24.3542 15.1053 22.079C14.7458 21.2645 13.6448 17.9533 15.3917 13.4762C15.3917 13.4762 18.1118 12.6088 24.3298 16.8096C26.932 16.0885 29.6947 15.729 32.4553 15.7107C35.218 15.729 37.9786 16.0905 40.5808 16.8096C46.7623 12.6088 49.4803 13.4762 49.4803 13.4762C51.2252 17.9533 50.1242 21.2624 49.8073 22.079C51.8692 24.3542 53.1286 27.253 53.1286 30.8079C53.1286 43.2907 45.5313 46.0432 38.3077 46.8375C39.4372 47.8105 40.4955 49.8114 40.4955 52.8483C40.4955 57.1954 40.4549 60.6975 40.4549 61.7559C40.4549 62.6009 41.0237 63.6166 42.6975 63.2896C55.6983 59.0379 65 46.8496 65 32.502C65 14.5589 50.4533 0 32.498 0L32.502 0.00203135Z" fill="#FC657E"/>
</svg>
