<svg width="61" height="91" viewBox="0 0 61 91" fill="none" xmlns="http://www.w3.org/2000/svg">
<ellipse cx="31.5" cy="24" rx="15.5" ry="19" fill="#FBF6D4"/>
<path d="M30.0067 45.0072C30.0067 25.0112 60.0106 25.0112 60.0106 45.0072C60.0106 65.0033 30.0067 65.0033 30.0067 45.0072ZM0.00281391 75.0111C0.00281391 66.7191 6.71129 60.0106 15.0034 60.0106H30.0039V75.0111C30.0039 95.0071 0 95.0071 0 75.0111H0.00281391ZM30.0067 0.00281278V30.0067H45.0072C65.0033 30.0067 65.0033 0.00281278 45.0072 0.00281278H30.0067ZM0.00281391 15.0033C0.00281391 23.2954 6.71129 30.0039 15.0034 30.0039H30.0039V0H15.0034C6.71129 0 0.00281391 6.70847 0.00281391 15.0005V15.0033ZM0.00281391 45.0072C0.00281391 53.2993 6.71129 60.0078 15.0034 60.0078H30.0039V30.0039H15.0034C6.71129 30.0039 0.00281391 36.7124 0.00281391 45.0044V45.0072Z" fill="#FC657E"/>
</svg>
