<svg width="71" height="67" viewBox="0 0 71 67" fill="none" xmlns="http://www.w3.org/2000/svg">
<ellipse cx="35.5" cy="33.5" rx="35.5" ry="33.5" fill="#FBF6D4"/>
<path d="M35.5 28.1204C32.3048 28.1204 29.7028 30.7225 29.7028 33.9176C29.7028 37.1128 32.3048 39.7148 35.5 39.7148C38.6952 39.7148 41.2972 37.1128 41.2972 33.9176C41.2972 30.7225 38.6952 28.1204 35.5 28.1204ZM19.2703 45.4389L17.9906 45.122C8.46812 42.7089 3 38.6261 3 33.9075C3 29.1889 8.47016 25.1061 17.9906 22.6929L19.2703 22.3761L19.6298 23.6456C20.5927 26.9667 21.8297 30.2045 23.3227 33.3367L23.5969 33.9075L23.3227 34.4884C21.8317 37.6084 20.5927 40.8462 19.6298 44.1795L19.2703 45.4389ZM17.3995 25.6545C10.1622 27.6857 5.71984 30.8057 5.71984 33.9075C5.71984 37.0092 10.1642 40.117 17.3995 42.1604C18.2892 39.335 19.3577 36.5846 20.6048 33.9075C19.3556 31.2303 18.2872 28.48 17.3995 25.6545ZM51.7297 45.4389L51.3702 44.1693C50.4073 40.8482 49.1703 37.6104 47.6773 34.4884L47.4031 33.9075L47.6773 33.3265C49.1683 30.2065 50.4073 26.9687 51.3702 23.6354L51.7297 22.3761L53.0094 22.6929C62.5319 25.1061 68 29.1889 68 33.9075C68 38.6261 62.5298 42.7089 53.0094 45.122L51.7297 45.4389ZM50.3952 33.9075C51.6972 36.7207 52.7758 39.4832 53.6005 42.1604C60.848 40.119 65.2802 37.0092 65.2802 33.9075C65.2802 30.8057 60.8358 27.6979 53.6005 25.6545C52.7108 28.4678 51.6423 31.2303 50.3952 33.9075ZM17.3772 25.6443L17.0177 24.3748C14.3405 14.9376 15.155 8.16745 19.25 5.80714C23.2698 3.48949 29.713 6.22964 36.473 13.1704L37.3931 14.1129L36.473 15.0554C34.072 17.5518 31.8823 20.2392 29.9141 23.0951L29.5444 23.6131L28.9086 23.6659C25.4494 23.9401 22.0206 24.4906 18.6569 25.3173L17.3772 25.6443ZM22.5183 7.69214C21.7891 7.69214 21.1431 7.84042 20.6028 8.1573C17.9155 9.71324 17.4402 15.1082 19.2906 22.3862C22.1791 21.7403 25.098 21.2853 28.0514 21.0212C29.7434 18.6081 31.6061 16.3026 33.6048 14.1332C29.3839 10.0179 25.3844 7.69011 22.5183 7.69011V7.69214ZM48.4919 62.8304C48.4817 62.8304 48.4817 62.8304 48.4919 62.8304C44.6305 62.8304 39.6681 59.9318 34.527 54.6425L33.6069 53.7L34.527 52.7575C36.928 50.2611 39.1177 47.5737 41.0859 44.7178L41.4455 44.1998L42.0812 44.1368C45.5405 43.8728 48.9692 43.3223 52.3431 42.4854L53.6228 42.1686L53.9823 43.4381C56.6595 52.8753 55.845 59.6353 51.75 61.9936C50.7547 62.5643 49.6334 62.8507 48.4919 62.8284V62.8304ZM37.3931 53.6796C41.6141 57.795 45.6136 60.1228 48.4797 60.1228H48.4898C49.2089 60.1228 49.8548 59.9643 50.3952 59.6576C53.0825 58.1017 53.57 52.7067 51.7073 45.4287C48.8189 46.0746 45.8878 46.5296 42.9466 46.7836C41.2545 49.2068 39.3919 51.5021 37.3931 53.6817V53.6796ZM53.6228 25.6443L52.3431 25.3173C48.9692 24.4926 45.5405 23.9421 42.0812 23.6659L41.4455 23.6131L41.0859 23.0951C39.1177 20.2392 36.928 17.5518 34.527 15.0554L33.6069 14.1129L34.527 13.1704C41.287 6.22964 47.7302 3.48949 51.75 5.80714C55.845 8.16542 56.6595 14.9376 53.9823 24.3748L53.6228 25.6443ZM42.9486 21.0212C46.0381 21.3076 48.9794 21.7626 51.7094 22.3862C53.572 15.1082 53.0845 9.71121 50.3972 8.1573C47.72 6.61355 42.6845 8.98199 37.3952 14.1353C39.3939 16.3148 41.2464 18.6101 42.9486 21.0232V21.0212ZM22.5183 62.8304C21.3747 62.8507 20.2433 62.5664 19.25 61.9956C15.155 59.6373 14.3405 52.8753 17.0177 43.4401L17.3772 42.1706L18.6569 42.4875C21.7891 43.2817 25.2381 43.8301 28.9086 44.1389L29.5444 44.2018L29.9039 44.7198C31.8722 47.5757 34.0619 50.2631 36.4628 52.7595L37.383 53.702L36.4628 54.6445C31.3319 59.9339 26.3695 62.8325 22.5183 62.8325V62.8304ZM19.2927 45.4287C17.43 52.7067 17.9175 58.1037 20.6048 59.6576C23.282 61.1811 28.3073 58.8329 33.6069 53.6796C31.6081 51.5001 29.7455 49.2048 28.0534 46.7815C25.102 46.5276 22.1811 46.0726 19.2927 45.4267V45.4287ZM35.5 47.1309C33.2677 47.1309 30.9825 47.0354 28.6872 46.8445L28.0514 46.7917L27.6817 46.2636C26.3919 44.4009 25.163 42.4875 24.0316 40.5192C22.888 38.5509 21.8419 36.542 20.8689 34.4884L20.5947 33.9075L20.8689 33.3265C21.8419 31.275 22.89 29.264 24.0316 27.2957C25.1528 25.36 26.3797 23.4242 27.6817 21.5514L28.0514 21.0232L28.6872 20.9704C33.225 20.5886 37.7852 20.5886 42.3128 20.9704L42.9486 21.0232L43.3183 21.5514C45.9102 25.2746 48.1953 29.2214 50.1311 33.3265L50.4053 33.9075L50.1311 34.4884C48.1953 38.5936 45.9203 42.5403 43.3183 46.2636L42.9486 46.7917L42.3128 46.8445C40.0277 47.0354 37.7323 47.1309 35.5 47.1309ZM29.5545 44.1896C33.5541 44.4964 37.4459 44.4964 41.4556 44.1896C43.688 40.9214 45.6766 37.4825 47.4011 33.9054C45.6867 30.3304 43.6981 26.8915 41.4455 23.6212C37.4886 23.3145 33.5114 23.3145 29.5545 23.6212C27.3019 26.8895 25.3112 30.3284 23.5989 33.9054C25.3234 37.4804 27.312 40.9193 29.5545 44.1896Z" fill="#FC657E"/>
</svg>
